<svg width="50" height="50" viewBox="0 0 50 50" fill="none" xmlns="http://www.w3.org/2000/svg">
<path d="M40.594 41.9875L27.5482 28.9416C26.5065 29.8291 25.3086 30.5159 23.9544 31.0021C22.6003 31.4882 21.2391 31.7312 19.8711 31.7312C16.535 31.7312 13.7114 30.5764 11.4003 28.2666C9.08915 25.9569 7.93359 23.134 7.93359 19.7979C7.93359 16.4618 9.08776 13.6375 11.3961 11.325C13.7044 9.01247 16.5266 7.85483 19.8628 7.85206C23.1989 7.84928 26.0239 9.00483 28.3378 11.3187C30.6516 13.6326 31.8086 16.4569 31.8086 19.7916C31.8086 21.2389 31.5523 22.6396 31.0398 23.9937C30.5273 25.3479 29.8537 26.5062 29.019 27.4687L42.0648 40.5125L40.594 41.9875ZM19.8732 29.6458C22.6371 29.6458 24.9704 28.6944 26.8732 26.7916C28.776 24.8889 29.7273 22.5548 29.7273 19.7896C29.7273 17.0243 28.776 14.6909 26.8732 12.7896C24.9704 10.8882 22.6371 9.93678 19.8732 9.93539C17.1093 9.934 14.7753 10.8854 12.8711 12.7896C10.9669 14.6937 10.0155 17.0271 10.0169 19.7896C10.0183 22.5521 10.9697 24.8854 12.8711 26.7896C14.7725 28.6937 17.1058 29.6451 19.8711 29.6437" fill="black"/>
</svg>
