<svg width="27" height="16" viewBox="0 0 27 16" fill="none" xmlns="http://www.w3.org/2000/svg">
<g id="7 1" clip-path="url(#clip0_191_269)">
<path id="Vector" d="M15.0979 0.287354H1.23329C1.06778 0.287354 0.932129 0.406871 0.932129 0.552704V5.32902C0.932129 5.47485 0.932129 5.71389 0.932129 5.85972V11.5955H1.23205L1.23329 11.5966H15.0979V11.5955H15.3991V5.85972C15.3991 5.71389 15.3991 5.47485 15.3991 5.32902V0.552704C15.3991 0.406871 15.2634 0.287354 15.0979 0.287354Z" fill="#F8F9FB"/>
<g id="Clip path group">
<mask id="mask0_191_269" style="mask-type:luminance" maskUnits="userSpaceOnUse" x="0" y="0" width="16" height="13">
<g id="3796fe2c1d">
<path id="Vector_2" d="M0.318604 0.0229492H15.9292V12.0701H0.318604V0.0229492Z" fill="white"/>
</g>
</mask>
<g mask="url(#mask0_191_269)">
<g id="Group">
<path id="Vector_3" d="M15.0978 11.8605H1.23318C1.23069 11.8605 1.2282 11.8605 1.22447 11.8605H0.932021C0.765262 11.8605 0.630859 11.7421 0.630859 11.5963V0.55243C0.630859 0.259667 0.900909 0.0217285 1.23318 0.0217285H15.0978C15.4301 0.0217285 15.7001 0.259667 15.7001 0.55243V11.5952C15.7001 11.7421 15.5645 11.8605 15.399 11.8605H15.1053C15.1028 11.8605 15.1003 11.8605 15.0978 11.8605ZM1.24065 11.3309H15.0903C15.0928 11.3309 15.0953 11.3309 15.0978 11.3309V0.55243H1.23318V11.3309C1.23567 11.3309 1.23816 11.3309 1.24065 11.3309Z" fill="black"/>
</g>
</g>
</g>
<path id="Vector_4" d="M23.0141 11.8356C22.8473 11.8356 22.7129 11.7161 22.7129 11.5703V11.3269C22.7129 11.1799 22.8473 11.0615 23.0141 11.0615C23.1796 11.0615 23.3152 11.1799 23.3152 11.3269V11.5703C23.3152 11.7161 23.1796 11.8356 23.0141 11.8356Z" fill="black"/>
<path id="Vector_5" d="M10.5717 3.42212V4.34426C10.5717 4.4901 10.436 4.60962 10.2705 4.60962H8.81077V5.89361C8.81077 6.03944 8.67512 6.15896 8.50961 6.15896H7.46052C7.29501 6.15896 7.15936 6.03944 7.15936 5.89361V4.60962H5.6996C5.53408 4.60962 5.39844 4.4901 5.39844 4.34426V3.42212C5.39844 3.27628 5.53408 3.15676 5.6996 3.15676H7.15936V1.87168C7.15936 1.72694 7.29501 1.60742 7.46052 1.60742H8.50961C8.67512 1.60742 8.81077 1.72694 8.81077 1.87168V3.15676H10.2705C10.436 3.15676 10.5717 3.27628 10.5717 3.42212Z" fill="#EC2529"/>
<path id="Vector_6" d="M8.50975 6.42428H7.46066C7.12839 6.42428 6.85834 6.18634 6.85834 5.89358V4.87494H5.69974C5.36746 4.87494 5.09741 4.637 5.09741 4.34423V3.42208C5.09741 3.12932 5.36746 2.89138 5.69974 2.89138H6.85834V1.87274C6.85834 1.57998 7.12839 1.34204 7.46066 1.34204H8.50975C8.84202 1.34204 9.11207 1.57998 9.11207 1.87274V2.89138H10.2707C10.6029 2.89138 10.873 3.12932 10.873 3.42208V4.34423C10.873 4.637 10.6029 4.87494 10.2707 4.87494H9.11207V5.89358C9.11207 6.18634 8.84202 6.42428 8.50975 6.42428ZM5.69974 3.42208V4.34423H7.1595C7.32626 4.34423 7.46066 4.46266 7.46066 4.60958V5.89358H8.5085L8.50975 4.60958C8.50975 4.46266 8.64415 4.34423 8.81091 4.34423H10.2707V3.42208H8.81091C8.64415 3.42208 8.50975 3.30366 8.50975 3.15673V1.87165H7.46066V3.15673C7.46066 3.30366 7.32626 3.42208 7.1595 3.42208H5.69974Z" fill="black"/>
<path id="Vector_7" d="M10.5718 3.42209V4.34424C10.5718 4.49007 10.4361 4.60959 10.2706 4.60959H9.67822C9.84374 4.60959 9.97938 4.49007 9.97938 4.34424V3.42209C9.97938 3.27626 9.84374 3.15674 9.67822 3.15674H10.2706C10.4361 3.15674 10.5718 3.27626 10.5718 3.42209Z" fill="black" fill-opacity="0.1"/>
<path id="Vector_8" d="M24.7364 6.45181H23.0141L20.3746 2.93098C20.3746 2.92988 20.3746 2.92988 20.3733 2.92878L19.8407 2.21716L19.7722 2.12506H19.771C19.6801 2.00335 19.4698 1.90356 19.3043 1.90356H15.3992V11.5965H25.8963V7.6437C25.8963 6.9858 25.3773 6.45181 24.7364 6.45181Z" fill="#F8F9FB"/>
<path id="Vector_9" d="M25.8962 11.8607H15.3991C15.2323 11.8607 15.0979 11.7422 15.0979 11.5964V1.90341C15.0979 1.75758 15.2323 1.63916 15.3991 1.63916H19.3042C19.5705 1.63916 19.8692 1.77951 20.0185 1.97359C20.0198 1.97578 20.0223 1.97688 20.0235 1.97907L20.6246 2.7828C20.6271 2.78499 20.6283 2.78719 20.6296 2.78938L23.1757 6.18741H24.7363C25.5415 6.18741 26.1973 6.83982 26.1973 7.64355V11.5964C26.1973 11.7422 26.0629 11.8607 25.8962 11.8607ZM15.7002 11.331H25.595V7.64355C25.595 7.13258 25.2092 6.71701 24.7363 6.71701H23.014C22.9119 6.71701 22.8173 6.67205 22.7626 6.59859L20.1231 3.07666C20.1218 3.07447 20.1206 3.07227 20.1181 3.07008V3.06898L19.5232 2.27512C19.522 2.27403 19.5207 2.27293 19.5207 2.27074C19.4847 2.22359 19.3689 2.16877 19.3042 2.16877H15.7002V11.331Z" fill="black"/>
<path id="Vector_10" d="M25.8961 7.64355V11.5953H25.2639V7.64355C25.2639 6.98565 24.7437 6.45166 24.1028 6.45166H24.7362C25.3771 6.45166 25.8961 6.98565 25.8961 7.64355Z" fill="black" fill-opacity="0.05"/>
<path id="Vector_11" d="M21.5057 6.20842C21.5928 6.33232 21.5293 6.4343 21.3638 6.4343H17.0978C16.9323 6.4343 16.7966 6.31478 16.7966 6.16895V3.2468C16.7966 3.10096 16.9323 2.98145 17.0978 2.98145H18.9297C19.0952 2.98145 19.3017 3.08232 19.3901 3.20623L21.5057 6.20842Z" fill="#A8CEED"/>
<path id="Vector_12" d="M21.3637 6.69852H17.0977C16.7654 6.69852 16.4954 6.46058 16.4954 6.16892V3.24677C16.4954 2.954 16.7654 2.71606 17.0977 2.71606H18.9295C19.2008 2.71606 19.502 2.86409 19.6451 3.06694L21.762 6.06913C21.8628 6.21168 21.874 6.36738 21.7931 6.49677C21.7122 6.62506 21.5554 6.69852 21.3637 6.69852ZM17.0977 3.24677V6.16892H21.1235L19.1336 3.34655C19.1013 3.30049 18.9905 3.24677 18.9295 3.24677H17.0977Z" fill="black"/>
<path id="Vector_13" d="M21.3562 6.4343H21.0389C21.2057 6.4343 21.2691 6.33232 21.182 6.20842L19.0652 3.20623C18.9781 3.08232 18.7715 2.98145 18.606 2.98145H18.9221C19.0876 2.98145 19.2954 3.08232 19.3813 3.20623L21.4981 6.20842C21.5865 6.33232 21.5217 6.4343 21.3562 6.4343Z" fill="black" fill-opacity="0.1"/>
<path id="Vector_14" d="M26.6915 12.8762C26.6915 13.022 26.5571 13.1404 26.3903 13.1404H0.438148C0.271389 13.1404 0.135742 13.022 0.135742 12.8762V11.8608C0.135742 11.715 0.271389 11.5955 0.438148 11.5955H26.3903C26.5558 11.5955 26.6915 11.715 26.6915 11.8608V12.8762Z" fill="#E5E1E8"/>
<g id="Clip path group_2">
<mask id="mask1_191_269" style="mask-type:luminance" maskUnits="userSpaceOnUse" x="0" y="11" width="27" height="3">
<g id="8b98ce619d">
<path id="Vector_15" d="M0 11.228H26.9204V13.4736H0V11.228Z" fill="white"/>
</g>
</mask>
<g mask="url(#mask1_191_269)">
<g id="Group_2">
<path id="Vector_16" d="M26.3902 13.4056H0.43804C0.105767 13.4056 -0.165527 13.1677 -0.165527 12.876V11.8607C-0.165527 11.569 0.105767 11.3311 0.43804 11.3311H26.3902C26.7225 11.3311 26.9938 11.569 26.9938 11.8607V12.876C26.9938 13.1677 26.7225 13.4056 26.3902 13.4056ZM0.43804 11.8607V12.876H26.3902V11.8607H0.43804Z" fill="black"/>
</g>
</g>
</g>
<path id="Vector_17" d="M26.6877 11.8608V12.8762C26.6877 13.022 26.552 13.1415 26.3865 13.1415H25.6934C25.8589 13.1415 25.9945 13.022 25.9945 12.8762V11.8608C25.9945 11.715 25.8589 11.5955 25.6934 11.5955H26.3865C26.552 11.5955 26.6877 11.715 26.6877 11.8608Z" fill="black" fill-opacity="0.1"/>
<path id="Vector_18" d="M7.5166 13.1403C7.5166 13.296 7.49917 13.4484 7.46557 13.6008C7.43073 13.7521 7.3797 13.9002 7.3125 14.0427C7.2453 14.1853 7.16317 14.3212 7.06485 14.4506C6.96778 14.5789 6.85703 14.6973 6.73258 14.807C6.60813 14.9166 6.47249 15.0142 6.32688 15.0997C6.18004 15.1863 6.02572 15.2587 5.86394 15.3179C5.70091 15.3771 5.53416 15.4221 5.36117 15.4517C5.18819 15.4824 5.01397 15.4978 4.8385 15.4978C4.66303 15.4978 4.4888 15.4824 4.31582 15.4517C4.14408 15.4221 3.97608 15.3771 3.8143 15.3179C3.65127 15.2587 3.49696 15.1863 3.35136 15.0997C3.20451 15.0142 3.06886 14.9166 2.94442 14.807C2.81997 14.6973 2.70921 14.5789 2.61214 14.4506C2.51383 14.3212 2.43169 14.1853 2.36449 14.0427C2.29729 13.9002 2.24627 13.7521 2.21142 13.6008C2.17782 13.4484 2.1604 13.296 2.1604 13.1403C2.1604 12.9857 2.17782 12.8333 2.21142 12.6809C2.24627 12.5295 2.29729 12.3815 2.36449 12.239C2.43169 12.0964 2.51383 11.9605 2.61214 11.8311C2.70921 11.7028 2.81997 11.5844 2.94442 11.4747C3.06886 11.3651 3.20451 11.2675 3.35136 11.1809C3.49696 11.0953 3.65127 11.023 3.8143 10.9638C3.97608 10.9045 4.14408 10.8596 4.31582 10.83C4.4888 10.7993 4.66303 10.7839 4.8385 10.7839C5.01397 10.7839 5.18819 10.7993 5.36117 10.83C5.53416 10.8596 5.70091 10.9045 5.86394 10.9638C6.02572 11.023 6.18004 11.0953 6.32688 11.1809C6.47249 11.2675 6.60813 11.3651 6.73258 11.4747C6.85703 11.5844 6.96778 11.7028 7.06485 11.8311C7.16317 11.9605 7.2453 12.0964 7.3125 12.239C7.3797 12.3815 7.43073 12.5295 7.46557 12.6809C7.49917 12.8333 7.5166 12.9857 7.5166 13.1403Z" fill="#383838"/>
<g id="Clip path group_3">
<mask id="mask2_191_269" style="mask-type:luminance" maskUnits="userSpaceOnUse" x="1" y="10" width="7" height="6">
<g id="c3362df6bb">
<path id="Vector_19" d="M1.59302 10.386H7.9647V15.7665H1.59302V10.386Z" fill="white"/>
</g>
</mask>
<g mask="url(#mask2_191_269)">
<g id="Group_3">
<path id="Vector_20" d="M4.83863 15.762C3.19593 15.762 1.85938 14.5865 1.85938 13.1414C1.85938 11.6951 3.19593 10.5186 4.83863 10.5186C6.48133 10.5186 7.81789 11.6951 7.81789 13.1414C7.81789 14.5865 6.48133 15.762 4.83863 15.762ZM4.83863 11.0493C3.52821 11.0493 2.4617 11.9879 2.4617 13.1403C2.4617 14.2938 3.52821 15.2324 4.83863 15.2324C6.14906 15.2324 7.21557 14.2938 7.21557 13.1403C7.21557 11.9879 6.14906 11.0493 4.83863 11.0493Z" fill="black"/>
</g>
</g>
</g>
<path id="Vector_21" d="M5.83541 13.1403C5.83541 13.2565 5.80928 13.3683 5.7595 13.4758C5.70848 13.5832 5.6363 13.6786 5.54296 13.7609C5.44963 13.8431 5.3426 13.9056 5.2194 13.9506C5.09744 13.9955 4.97051 14.0174 4.83859 14.0174C4.70668 14.0174 4.57974 13.9955 4.45779 13.9506C4.33583 13.9056 4.22756 13.8431 4.13422 13.7609C4.04089 13.6786 3.96871 13.5832 3.91893 13.4758C3.86791 13.3683 3.84302 13.2565 3.84302 13.1403C3.84302 13.024 3.86791 12.9133 3.91893 12.8058C3.96871 12.6984 4.04089 12.603 4.13422 12.5207C4.22756 12.4385 4.33583 12.376 4.45779 12.331C4.57974 12.2861 4.70668 12.2642 4.83859 12.2642C4.97051 12.2642 5.09744 12.2861 5.2194 12.331C5.3426 12.376 5.44963 12.4385 5.54296 12.5207C5.6363 12.603 5.70848 12.6984 5.7595 12.8058C5.80928 12.9133 5.83541 13.024 5.83541 13.1403Z" fill="#E5E1E8"/>
<path id="Vector_22" d="M4.83848 14.283C4.12291 14.283 3.54175 13.771 3.54175 13.1416C3.54175 12.5111 4.12291 11.999 4.83848 11.999C5.55405 11.999 6.13647 12.5111 6.13647 13.1416C6.13647 13.771 5.55405 14.283 4.83848 14.283ZM4.83848 12.5297C4.45519 12.5297 4.14407 12.8038 4.14407 13.1405C4.14407 13.4782 4.45519 13.7523 4.83848 13.7523C5.22178 13.7523 5.5329 13.4782 5.5329 13.1405C5.53414 12.8038 5.22178 12.5297 4.83848 12.5297Z" fill="black"/>
<path id="Vector_23" d="M23.9822 13.1403C23.9822 13.296 23.9647 13.4484 23.9311 13.6008C23.8963 13.7521 23.8453 13.9002 23.7781 14.0427C23.7109 14.1853 23.6287 14.3212 23.5317 14.4506C23.4334 14.5789 23.3226 14.6973 23.1982 14.807C23.0737 14.9166 22.9381 15.0142 22.7925 15.0997C22.6456 15.1863 22.4913 15.2587 22.3295 15.3179C22.1665 15.3771 21.9997 15.4221 21.8268 15.4517C21.6538 15.4824 21.4795 15.4978 21.3041 15.4978C21.1286 15.4978 20.9544 15.4824 20.7814 15.4517C20.6097 15.4221 20.4417 15.3771 20.2799 15.3179C20.1169 15.2587 19.9625 15.1863 19.8169 15.0997C19.6701 15.0142 19.5344 14.9166 19.41 14.807C19.2868 14.6973 19.1748 14.5789 19.0777 14.4506C18.9794 14.3212 18.8973 14.1853 18.8301 14.0427C18.7629 13.9002 18.7118 13.7521 18.677 13.6008C18.6434 13.4484 18.626 13.296 18.626 13.1403C18.626 12.9857 18.6434 12.8333 18.677 12.6809C18.7118 12.5295 18.7629 12.3815 18.8301 12.239C18.8973 12.0964 18.9794 11.9605 19.0777 11.8311C19.1748 11.7028 19.2868 11.5844 19.41 11.4747C19.5344 11.3651 19.6701 11.2675 19.8169 11.1809C19.9625 11.0953 20.1169 11.023 20.2799 10.9638C20.4417 10.9045 20.6097 10.8596 20.7814 10.83C20.9544 10.7993 21.1286 10.7839 21.3041 10.7839C21.4795 10.7839 21.6538 10.7993 21.8268 10.83C21.9997 10.8596 22.1665 10.9045 22.3295 10.9638C22.4913 11.023 22.6456 11.0953 22.7925 11.1809C22.9381 11.2675 23.0737 11.3651 23.1982 11.4747C23.3226 11.5844 23.4334 11.7028 23.5317 11.8311C23.6287 11.9605 23.7109 12.0964 23.7781 12.239C23.8453 12.3815 23.8963 12.5295 23.9311 12.6809C23.9647 12.8333 23.9822 12.9857 23.9822 13.1403Z" fill="#383838"/>
<g id="Clip path group_4">
<mask id="mask3_191_269" style="mask-type:luminance" maskUnits="userSpaceOnUse" x="18" y="10" width="7" height="6">
<g id="3f14f6b057">
<path id="Vector_24" d="M18.1592 10.386H24.5309V15.7665H18.1592V10.386Z" fill="white"/>
</g>
</mask>
<g mask="url(#mask3_191_269)">
<g id="Group_4">
<path id="Vector_25" d="M21.304 15.762C19.6613 15.762 18.3247 14.5865 18.3247 13.1414C18.3247 11.6951 19.6613 10.5186 21.304 10.5186C22.9467 10.5186 24.2832 11.6951 24.2832 13.1414C24.2832 14.5865 22.9467 15.762 21.304 15.762ZM21.304 11.0493C19.9935 11.0493 18.927 11.9879 18.927 13.1403C18.927 14.2938 19.9935 15.2324 21.304 15.2324C22.6144 15.2324 23.6809 14.2938 23.6809 13.1403C23.6809 11.9879 22.6144 11.0493 21.304 11.0493Z" fill="black"/>
</g>
</g>
</g>
<path id="Vector_26" d="M22.301 13.1403C22.301 13.2565 22.2749 13.3683 22.2251 13.4758C22.1741 13.5832 22.1019 13.6786 22.0085 13.7609C21.9152 13.8431 21.8082 13.9056 21.6862 13.9506C21.563 13.9955 21.4361 14.0174 21.3042 14.0174C21.1723 14.0174 21.0453 13.9955 20.9234 13.9506C20.8014 13.9056 20.6931 13.8431 20.5998 13.7609C20.5065 13.6786 20.4343 13.5832 20.3845 13.4758C20.3335 13.3683 20.3086 13.2565 20.3086 13.1403C20.3086 13.024 20.3335 12.9133 20.3845 12.8058C20.4343 12.6984 20.5065 12.603 20.5998 12.5207C20.6931 12.4385 20.8014 12.376 20.9234 12.331C21.0453 12.2861 21.1723 12.2642 21.3042 12.2642C21.4361 12.2642 21.563 12.2861 21.6862 12.331C21.8082 12.376 21.9152 12.4385 22.0085 12.5207C22.1019 12.603 22.1741 12.6984 22.2251 12.8058C22.2749 12.9133 22.301 13.024 22.301 13.1403Z" fill="#E5E1E8"/>
<path id="Vector_27" d="M21.3041 14.283C20.5885 14.283 20.0073 13.771 20.0073 13.1416C20.0073 12.5111 20.5885 11.999 21.3041 11.999C22.0196 11.999 22.602 12.5111 22.602 13.1416C22.602 13.771 22.0196 14.283 21.3041 14.283ZM21.3041 12.5297C20.9208 12.5297 20.6096 12.8038 20.6096 13.1405C20.6096 13.4782 20.9208 13.7523 21.3041 13.7523C21.6874 13.7523 21.9997 13.4782 21.9997 13.1405C21.9997 12.8038 21.6874 12.5297 21.3041 12.5297Z" fill="black"/>
<path id="Vector_28" d="M25.5951 7.86621H24.8683C24.7016 7.86621 24.5659 7.98463 24.5659 8.13047V9.10854C24.5659 9.25437 24.7016 9.37389 24.8683 9.37389H25.8963V7.86621H25.5951Z" fill="#FBDA48"/>
<path id="Vector_29" d="M25.8961 9.63921H24.8682C24.5359 9.63921 24.2646 9.40127 24.2646 9.10851V8.13044C24.2646 7.83877 24.5359 7.60083 24.8682 7.60083H25.8961C26.0629 7.60083 26.1973 7.71925 26.1973 7.86618V9.37386C26.1973 9.52079 26.0629 9.63921 25.8961 9.63921ZM24.8682 8.13044V9.10851H25.595V8.13044H24.8682Z" fill="black"/>
<path id="Vector_30" d="M18.9309 1.47159V1.9036H16.8328V1.47159C16.8328 0.961717 17.3032 0.54834 17.8819 0.54834C18.1718 0.54834 18.4332 0.65141 18.6236 0.819173C18.814 0.98584 18.9309 1.2161 18.9309 1.47159Z" fill="#EC2529"/>
<path id="Vector_31" d="M18.9308 2.16892H16.8327C16.6659 2.16892 16.5315 2.0505 16.5315 1.90357V1.47156C16.5315 0.815854 17.1376 0.282959 17.8817 0.282959C18.2426 0.282959 18.5824 0.406863 18.8375 0.631643C19.0926 0.855328 19.232 1.15357 19.232 1.47156V1.90357C19.232 2.0505 19.0976 2.16892 18.9308 2.16892ZM17.1338 1.63932H18.6297V1.47156C18.6297 1.29612 18.5525 1.13055 18.4106 1.00664C18.2688 0.881643 18.0821 0.813661 17.8817 0.813661C17.4698 0.813661 17.1338 1.10862 17.1338 1.47156V1.63932Z" fill="black"/>
<path id="Vector_32" d="M18.9309 1.47159V1.9036H18.5464V1.47159C18.5464 1.2161 18.4294 0.98584 18.239 0.818077C18.0922 0.688691 17.903 0.597682 17.689 0.563691C17.7512 0.553822 17.8159 0.54834 17.8819 0.54834C18.1718 0.54834 18.4332 0.65141 18.6236 0.818077C18.814 0.98584 18.9309 1.2161 18.9309 1.47159Z" fill="black" fill-opacity="0.1"/>
<path id="Vector_33" d="M18.2202 7.84857H16.7965C16.6298 7.84857 16.4954 7.72906 16.4954 7.58322C16.4954 7.43629 16.6298 7.31787 16.7965 7.31787H18.2202C18.3857 7.31787 18.5214 7.43629 18.5214 7.58322C18.5214 7.72906 18.3857 7.84857 18.2202 7.84857Z" fill="black"/>
<path id="Vector_34" d="M21.8181 13.1403C21.8181 12.7291 21.497 12.3848 21.064 12.2905C21.1411 12.2729 21.222 12.2642 21.3041 12.2642C21.8554 12.2642 22.301 12.6567 22.301 13.1403C22.301 13.6249 21.8554 14.0174 21.3041 14.0174C21.222 14.0174 21.1411 14.0076 21.064 13.9911C21.497 13.8957 21.8181 13.5514 21.8181 13.1403Z" fill="black" fill-opacity="0.2"/>
<path id="Vector_35" d="M23.9822 13.1403C23.9822 14.4418 22.7838 15.4978 21.3041 15.4978C21.2233 15.4978 21.1436 15.4945 21.064 15.4879C22.4304 15.3804 23.5006 14.3706 23.5006 13.1403C23.5006 11.9111 22.4291 10.9013 21.064 10.7938C21.1436 10.7872 21.2233 10.7839 21.3041 10.7839C22.7838 10.7839 23.9822 11.8399 23.9822 13.1403Z" fill="black" fill-opacity="0.2"/>
<path id="Vector_36" d="M5.35254 13.1403C5.35254 12.7291 5.03146 12.3848 4.59839 12.2894C4.67555 12.2729 4.75644 12.2642 4.83857 12.2642C5.38863 12.2642 5.83539 12.6556 5.83539 13.1403C5.83539 13.6249 5.38863 14.0164 4.83857 14.0164C4.75644 14.0164 4.67555 14.0076 4.59839 13.9911C5.03146 13.8957 5.35254 13.5514 5.35254 13.1403Z" fill="black" fill-opacity="0.2"/>
<path id="Vector_37" d="M7.51667 13.1403C7.51667 14.4418 6.31824 15.4967 4.83857 15.4967C4.75768 15.4967 4.67803 15.4945 4.59839 15.4879C5.96357 15.3804 7.03506 14.3706 7.03506 13.1403C7.03506 11.9111 5.96357 10.9002 4.59839 10.7938C4.67803 10.7872 4.75768 10.7839 4.83857 10.7839C6.31824 10.7839 7.51667 11.8388 7.51667 13.1403Z" fill="black" fill-opacity="0.2"/>
<path id="Vector_38" d="M15.3991 0.552704V11.5955H15.0992C15.098 11.5955 15.098 11.5955 15.098 11.5955H14.1933V0.552704C14.1933 0.406871 14.0576 0.287354 13.8921 0.287354H15.098C15.2635 0.287354 15.3991 0.406871 15.3991 0.552704Z" fill="black" fill-opacity="0.05"/>
<path id="Vector_39" d="M0.932129 7.58325H15.3991V9.37382H0.932129V7.58325Z" fill="#EC2529"/>
<path id="Vector_40" d="M15.399 9.63914H0.932021C0.765262 9.63914 0.630859 9.52072 0.630859 9.37379V7.58322C0.630859 7.43629 0.765262 7.31787 0.932021 7.31787H15.399C15.5645 7.31787 15.7001 7.43629 15.7001 7.58322V9.37379C15.7001 9.52072 15.5645 9.63914 15.399 9.63914ZM1.23318 9.10844H15.0978V7.84857H1.23318V9.10844Z" fill="black"/>
</g>
<defs>
<clipPath id="clip0_191_269">
<rect width="27" height="16" fill="white"/>
</clipPath>
</defs>
</svg>
