<svg width="37" height="22" viewBox="0 0 37 22" fill="none" xmlns="http://www.w3.org/2000/svg">
<g clip-path="url(#clip0_191_322)">
<mask id="mask0_191_322" style="mask-type:luminance" maskUnits="userSpaceOnUse" x="2" y="0" width="33" height="11">
<path d="M2.86499 0.666016H34.2065V10.0907H2.86499V0.666016Z" fill="white"/>
</mask>
<g mask="url(#mask0_191_322)">
<path d="M15.6588 1.93301C15.6656 1.93301 15.6707 1.93301 15.6776 1.93301H21.4076C21.4145 1.93301 21.4179 1.93301 21.4247 1.93301C24.2215 1.87903 26.9706 2.07931 29.0068 2.8421C31.0397 3.60488 32.4005 4.8421 32.7195 7.18301V8.17448C32.7195 8.28386 32.7024 8.29806 32.6205 8.3634C32.5404 8.42448 32.363 8.50971 32.1038 8.57079C31.5871 8.69011 30.806 8.70999 30.1699 8.66738C30.1494 8.66738 30.1307 8.66738 30.1119 8.66738C28.6061 8.66738 28.0927 8.47704 27.8352 8.27391C27.5777 8.07079 27.4191 7.63897 27.0132 6.9671L26.2202 5.6617C25.8263 5.01113 25.272 4.55374 24.6479 4.28954C24.022 4.02676 23.3603 3.95715 22.7327 3.95715H14.3508C13.7249 3.95715 13.0615 4.02676 12.4356 4.28954C11.8132 4.55374 11.2589 5.01113 10.8667 5.6617L10.072 6.9671C9.66438 7.63755 9.50577 8.07079 9.24997 8.27249C8.99245 8.47704 8.47913 8.66738 6.97328 8.66738C6.95452 8.66738 6.93235 8.66738 6.91359 8.66738C6.27748 8.70857 5.49642 8.69011 4.98139 8.56937C4.72388 8.50829 4.54481 8.42448 4.46296 8.36198C4.3828 8.29806 4.36404 8.28244 4.36404 8.17306V7.18159C4.68466 4.8421 6.04555 3.60488 8.07837 2.8421C10.1163 2.07931 12.862 1.88045 15.6588 1.93301ZM15.6776 0.709995C12.7852 0.656018 9.85026 0.832154 7.45931 1.72988C5.06325 2.63045 3.25043 4.34636 2.88207 7.05516C2.88036 7.07789 2.87865 7.10062 2.87524 7.12193V8.17448C2.87524 8.59352 3.10718 8.99267 3.43802 9.24977C3.76886 9.50829 4.16792 9.65034 4.57381 9.74409C5.37534 9.93159 6.2502 9.93301 6.99545 9.88613C8.63773 9.88329 9.63538 9.66454 10.2817 9.15886C10.9298 8.64607 11.073 8.05943 11.4039 7.51539L12.1969 6.20573C12.4748 5.74551 12.775 5.51965 13.1144 5.37619C13.4537 5.23414 13.8647 5.17732 14.3508 5.17732H22.7327C23.2205 5.17732 23.6298 5.23414 23.9708 5.37619C24.3085 5.51965 24.6104 5.74551 24.8883 6.20573L25.6813 7.51539C26.0122 8.05943 26.1537 8.64607 26.8035 9.15886C27.4481 9.66454 28.4458 9.88329 30.0898 9.88613C30.8316 9.93301 31.7099 9.93159 32.5097 9.74409C32.9173 9.65034 33.3163 9.50829 33.6455 9.24977C33.978 8.99267 34.2065 8.59352 34.2065 8.17448V7.12193C34.2065 7.10062 34.2048 7.07789 34.2014 7.05516C33.8365 4.34636 32.022 2.63045 29.6259 1.72988C27.2332 0.832154 24.2983 0.656018 21.4076 0.709995H15.6776Z" fill="black"/>
</g>
<mask id="mask1_191_322" style="mask-type:luminance" maskUnits="userSpaceOnUse" x="5" y="6" width="27" height="16">
<path d="M5.23901 6.45459H31.8703V21.0611H5.23901V6.45459Z" fill="white"/>
</mask>
<g mask="url(#mask1_191_322)">
<path d="M5.44031 18.5342C5.43348 18.5612 5.43348 18.5882 5.43007 18.6137L5.44031 18.5342ZM14.426 7.8339H15.9659C16.5321 8.5839 17.4428 9.12651 18.5428 9.12651C19.6427 9.12367 20.5483 8.5839 21.1145 7.8339H22.6613C22.9256 9.25293 23.647 10.4688 25.3285 11.4546C26.1181 11.9177 26.9009 12.3382 27.5318 12.7615C28.1748 13.1904 28.6284 13.5882 28.7887 14.0754C28.7904 14.0853 28.7938 14.0953 28.7955 14.1052L30.1752 18.7117C30.1752 18.7203 30.1769 18.7288 30.1769 18.7359C30.24 19.0228 30.0814 19.3169 29.8409 19.5029C29.5732 19.7103 29.2321 19.8282 28.8501 19.8282H8.23543C7.85342 19.8282 7.51405 19.7117 7.24631 19.5029C7.00585 19.3197 6.84384 19.0228 6.90694 18.7359L8.29171 14.1052C8.29341 14.0953 8.29512 14.0853 8.29682 14.0754C8.45542 13.5882 8.91076 13.1904 9.55199 12.7615C10.183 12.3382 10.9709 11.9205 11.7605 11.4546C13.442 10.4688 14.1633 9.25293 14.4294 7.8339H14.426ZM31.6435 18.5171L31.6521 18.6137C31.6538 18.5825 31.6486 18.5484 31.6435 18.5171ZM14.426 6.6123C13.6995 6.6123 13.0685 7.05691 12.9576 7.64782C12.7274 8.87651 12.3011 9.63361 10.8941 10.4589C10.142 10.9007 9.3337 11.3282 8.61061 11.814C7.89606 12.2927 7.14739 12.8794 6.86089 13.7572C6.85918 13.7586 6.85919 13.76 6.85748 13.7615C6.85577 13.7742 6.84895 13.797 6.84384 13.814L5.45054 18.4745C5.44713 18.4873 5.44542 18.5029 5.44372 18.5171C5.27488 19.2728 5.66201 19.9589 6.22308 20.3936C6.75686 20.8055 7.47312 21.0512 8.23543 21.0512H28.8484C29.6107 21.0512 30.327 20.8055 30.859 20.3936C31.4218 19.9589 31.8089 19.2757 31.6401 18.5171C31.6384 18.5029 31.6367 18.4873 31.6316 18.4745L30.24 13.814C30.2366 13.797 30.2315 13.7728 30.2264 13.7615C30.2246 13.76 30.2246 13.7586 30.2212 13.7572C29.9364 12.8794 29.1895 12.2927 28.4732 11.814C27.7501 11.3282 26.9452 10.9021 26.1914 10.4589C24.7845 9.63361 24.3598 8.87651 24.1296 7.64782C24.0188 7.05691 23.3861 6.6123 22.6596 6.6123H20.7905C20.4801 6.6123 20.2004 6.7714 20.093 7.01287C19.8525 7.54838 19.2369 7.90208 18.5428 7.90492C17.8453 7.90208 17.2279 7.55123 16.9858 7.01287C16.88 6.7714 16.6003 6.6123 16.2883 6.6123H14.426Z" fill="black"/>
</g>
<path d="M18.5426 11.6503C20.3162 11.6503 21.7368 12.8193 21.7368 14.2753C21.7368 15.7313 20.3162 16.9017 18.5426 16.9017C16.7707 16.9017 15.3501 15.7313 15.3501 14.2753C15.3501 12.8193 16.7707 11.6503 18.5426 11.6503ZM18.5426 10.4287C15.9658 10.4287 13.8613 12.1574 13.8613 14.2753C13.8613 16.3918 15.9658 18.1219 18.5426 18.1219C21.1194 18.1219 23.2256 16.3918 23.2256 14.2753C23.2239 12.1574 21.1194 10.4287 18.5426 10.4287Z" fill="black"/>
</g>
<defs>
<clipPath id="clip0_191_322">
<rect width="37" height="20.7273" fill="white" transform="translate(0 0.63623)"/>
</clipPath>
</defs>
</svg>
