<svg width="32" height="22" viewBox="0 0 32 22" fill="none" xmlns="http://www.w3.org/2000/svg">
<mask id="mask0_191_342" style="mask-type:luminance" maskUnits="userSpaceOnUse" x="4" y="7" width="23" height="15">
<path d="M4.94849 7.71924H26.9721V21.9668H4.94849V7.71924Z" fill="white"/>
</mask>
<g mask="url(#mask0_191_342)">
<path d="M26.5858 21.9217H5.33503C5.15214 21.9217 5.00317 21.7679 5.00317 21.5795V8.2441C5.00317 8.05564 5.15214 7.90186 5.33503 7.90186C5.5194 7.90186 5.66689 8.05564 5.66689 8.2441V21.2372H26.2539V8.2441C26.2539 8.05564 26.4029 7.90186 26.5858 7.90186C26.7701 7.90186 26.9176 8.05564 26.9176 8.2441V21.5795C26.9176 21.7679 26.7701 21.9217 26.5858 21.9217Z" fill="black"/>
</g>
<mask id="mask1_191_342" style="mask-type:luminance" maskUnits="userSpaceOnUse" x="4" y="13" width="23" height="9">
<path d="M4.94849 13.123H26.9721V21.9671H4.94849V13.123Z" fill="white"/>
</mask>
<g mask="url(#mask1_191_342)">
<path d="M26.5856 21.9219C26.5177 21.9219 26.4484 21.9008 26.3894 21.8571L15.9602 13.9704L5.53101 21.8571C5.38204 21.9686 5.17555 21.934 5.06788 21.7817C4.95874 21.6294 4.99119 21.4153 5.13868 21.3022L15.764 13.2694C15.8806 13.1804 16.0399 13.1804 16.1564 13.2694L26.7817 21.3022C26.9292 21.4153 26.9617 21.6294 26.854 21.7817C26.7876 21.8737 26.6874 21.9219 26.5856 21.9219Z" fill="black"/>
</g>
<mask id="mask2_191_342" style="mask-type:luminance" maskUnits="userSpaceOnUse" x="21" y="4" width="6" height="5">
<path d="M21.5222 4.24561H26.9721V8.87718H21.5222V4.24561Z" fill="white"/>
</mask>
<g mask="url(#mask2_191_342)">
<path d="M26.5857 8.58764C26.5179 8.58764 26.4486 8.56502 26.3896 8.5213L21.8468 5.08681C21.6993 4.97374 21.6683 4.75965 21.776 4.60737C21.8837 4.4551 22.0901 4.42042 22.2406 4.5335L26.7819 7.96798C26.9294 8.07955 26.9618 8.29364 26.8542 8.44742C26.7878 8.53788 26.6875 8.58764 26.5857 8.58764Z" fill="black"/>
</g>
<mask id="mask3_191_342" style="mask-type:luminance" maskUnits="userSpaceOnUse" x="4" y="4" width="7" height="5">
<path d="M4.94849 4.24561H10.1948V8.87718H4.94849V4.24561Z" fill="white"/>
</mask>
<g mask="url(#mask3_191_342)">
<path d="M5.33632 8.58603C5.23307 8.58603 5.13278 8.53778 5.06788 8.44732C4.95874 8.29354 4.99119 8.07945 5.13868 7.96788L9.54871 4.6329C9.6962 4.52134 9.90417 4.55601 10.0118 4.70829C10.121 4.86056 10.0885 5.07465 9.94104 5.18773L5.53101 8.5212C5.47201 8.56492 5.40416 8.58603 5.33632 8.58603Z" fill="black"/>
</g>
<mask id="mask4_191_342" style="mask-type:luminance" maskUnits="userSpaceOnUse" x="17" y="7" width="10" height="9">
<path d="M17.3687 7.71924H26.9719V15.4385H17.3687V7.71924Z" fill="white"/>
</mask>
<g mask="url(#mask4_191_342)">
<path d="M17.7684 15.2547C17.6652 15.2547 17.5649 15.2064 17.5 15.1144C17.3909 14.9622 17.4233 14.7466 17.5708 14.635L26.3894 7.96807C26.5384 7.85499 26.7448 7.88967 26.854 8.04194C26.9617 8.19422 26.9292 8.40831 26.7817 8.52138L17.9646 15.1883C17.9041 15.2336 17.8363 15.2547 17.7684 15.2547Z" fill="black"/>
</g>
<mask id="mask5_191_342" style="mask-type:luminance" maskUnits="userSpaceOnUse" x="4" y="7" width="11" height="9">
<path d="M4.94849 7.71924H14.7258V15.4385H4.94849V7.71924Z" fill="white"/>
</mask>
<g mask="url(#mask5_191_342)">
<path d="M14.1534 15.2546C14.0856 15.2546 14.0163 15.2335 13.9573 15.1883L5.13868 8.52133C4.99119 8.40825 4.95874 8.19416 5.06788 8.04189C5.17555 7.88811 5.38204 7.85494 5.53101 7.96801L14.3496 14.635C14.4971 14.7465 14.5295 14.9621 14.4219 15.1144C14.3555 15.2049 14.2552 15.2546 14.1534 15.2546Z" fill="black"/>
</g>
<mask id="mask6_191_342" style="mask-type:luminance" maskUnits="userSpaceOnUse" x="9" y="0" width="14" height="13">
<path d="M9.06201 0.0317383H22.2774V12.351H9.06201V0.0317383Z" fill="white"/>
</mask>
<g mask="url(#mask6_191_342)">
<path d="M21.9219 12.1127C21.739 12.1127 21.5901 11.959 21.5901 11.7705V0.717731H10.0768V11.5443C10.0768 11.7343 9.92784 11.8881 9.74494 11.8881C9.56058 11.8881 9.41309 11.7343 9.41309 11.5443V0.375488C9.41309 0.185521 9.56058 0.0317383 9.74494 0.0317383H21.9219C22.1063 0.0317383 22.2553 0.185521 22.2553 0.375488V11.7705C22.2553 11.959 22.1063 12.1127 21.9219 12.1127Z" fill="black"/>
</g>
<path d="M16.0015 5.81827C15.4218 5.81827 14.9513 6.30525 14.9513 6.90229C14.9513 7.50084 15.4218 7.98631 16.0015 7.98631C16.5796 7.98631 17.0501 7.50084 17.0501 6.90229C17.0501 6.30525 16.5796 5.81827 16.0015 5.81827ZM16.0015 8.6723C15.056 8.6723 14.2861 7.87776 14.2861 6.90229C14.2861 5.92683 15.056 5.13379 16.0015 5.13379C16.9469 5.13379 17.7153 5.92683 17.7153 6.90229C17.7153 7.87776 16.9469 8.6723 16.0015 8.6723Z" fill="black"/>
<path d="M15.8334 11.1341C13.618 11.1341 11.8157 9.27363 11.8157 6.98648C11.8157 4.69934 13.618 2.83887 15.8334 2.83887C18.0487 2.83887 19.8511 4.69934 19.8511 6.98648V7.32722C19.8511 8.11573 19.2301 8.75649 18.4676 8.75649C17.7051 8.75649 17.0841 8.11573 17.0841 7.32722V5.56022C17.0841 5.37025 17.2331 5.21798 17.416 5.21798C17.5989 5.21798 17.7478 5.37025 17.7478 5.56022V7.32722C17.7478 7.7373 18.0708 8.0705 18.4676 8.0705C18.8643 8.0705 19.1874 7.7373 19.1874 7.32722V6.98648C19.1874 5.07777 17.6829 3.52486 15.8334 3.52486C13.9838 3.52486 12.4794 5.07777 12.4794 6.98648C12.4794 8.8952 13.9838 10.4481 15.8334 10.4481C16.4941 10.4481 17.1343 10.2506 17.6815 9.8767C17.8348 9.76965 18.0413 9.81488 18.1416 9.97168C18.2434 10.13 18.2021 10.3426 18.0487 10.4466C17.3909 10.8974 16.6254 11.1341 15.8334 11.1341Z" fill="black"/>
</svg>
