<svg width="40" height="41" viewBox="0 0 40 41" fill="none" xmlns="http://www.w3.org/2000/svg">
<g id="iconProfil 2" clip-path="url(#clip0_415_92)">
<path id="Vector" d="M34.0823 5.96461C30.3108 2.11825 25.2976 0 19.9647 0C14.6318 0 9.6186 2.11825 5.84766 5.96461C2.07672 9.81098 0 14.9245 0 20.364C0 25.8036 2.07672 30.9171 5.84766 34.764C9.6186 38.6098 14.6318 40.728 19.9647 40.728C25.2976 40.728 30.3108 38.6098 34.0823 34.764C37.8533 30.9176 39.9294 25.8036 39.9294 20.364C39.9294 14.9245 37.8527 9.81098 34.0823 5.96461ZM31.907 33.7971V33.3979C31.907 29.8596 29.095 26.9914 25.6261 26.9914H14.7388C11.2698 26.9914 8.45789 29.8602 8.45789 33.3979V34.1866C4.61861 30.8558 2.17813 25.8958 2.17813 20.364C2.17813 10.3602 10.1571 2.22169 19.9647 2.22169C29.7729 2.22169 37.7519 10.3602 37.7519 20.364C37.7519 25.6838 35.4949 30.4763 31.907 33.7971Z" fill="black"/>
<path id="Vector_2" d="M27.1881 17.8832C27.1881 18.1255 27.1765 18.3678 27.1534 18.6089C27.1297 18.8501 27.095 19.0901 27.0487 19.3279C27.0024 19.5657 26.9445 19.8007 26.8756 20.0329C26.8067 20.2651 26.7262 20.4928 26.6353 20.7171C26.5444 20.9408 26.443 21.1601 26.3311 21.3737C26.2186 21.5879 26.0968 21.7953 25.9646 21.9971C25.8323 22.1989 25.6912 22.3934 25.5402 22.5807C25.3892 22.7684 25.2299 22.9477 25.0618 23.1192C24.8937 23.2907 24.7179 23.4537 24.5338 23.6072C24.3502 23.7612 24.1596 23.9057 23.9617 24.04C23.7638 24.175 23.5605 24.2992 23.3505 24.4139C23.141 24.528 22.9261 24.6314 22.7067 24.7248C22.4868 24.8175 22.2631 24.899 22.036 24.9693C21.8084 25.0396 21.578 25.0986 21.3448 25.1458C21.1117 25.1931 20.8764 25.2285 20.6399 25.2526C20.4035 25.2763 20.1659 25.2881 19.9284 25.2881C19.6909 25.2881 19.4533 25.2763 19.2169 25.2526C18.9799 25.2285 18.7451 25.1931 18.512 25.1458C18.2788 25.0986 18.0484 25.0396 17.8208 24.9693C17.5932 24.899 17.37 24.8175 17.1501 24.7248C16.9307 24.6314 16.7158 24.528 16.5063 24.4139C16.2963 24.2992 16.093 24.175 15.8951 24.04C15.6973 23.9057 15.5066 23.7612 15.323 23.6072C15.1389 23.4537 14.9631 23.2907 14.795 23.1192C14.6269 22.9477 14.4671 22.7684 14.3166 22.5807C14.1656 22.3934 14.024 22.1989 13.8922 21.9971C13.76 21.7953 13.6376 21.5879 13.5257 21.3737C13.4139 21.1601 13.3124 20.9408 13.2209 20.7171C13.13 20.4928 13.0501 20.2651 12.9812 20.0329C12.9123 19.8007 12.8544 19.5657 12.8081 19.3279C12.7618 19.0901 12.7266 18.8501 12.7034 18.6089C12.6803 18.3678 12.6687 18.1255 12.6687 17.8832C12.6687 17.6409 12.6803 17.3986 12.7034 17.1574C12.7266 16.9162 12.7618 16.6762 12.8081 16.4384C12.8544 16.2006 12.9123 15.9656 12.9812 15.7334C13.0501 15.5018 13.13 15.2736 13.2209 15.0493C13.3124 14.8255 13.4139 14.6063 13.5257 14.3927C13.6376 14.1785 13.76 13.971 13.8922 13.7692C14.024 13.5674 14.1656 13.3729 14.3166 13.1857C14.4671 12.9979 14.6269 12.8186 14.795 12.6471C14.9631 12.4757 15.1389 12.3126 15.323 12.1592C15.5066 12.0051 15.6973 11.8606 15.8951 11.7263C16.093 11.5914 16.2963 11.4671 16.5063 11.3524C16.7158 11.2383 16.9307 11.1349 17.1501 11.0421C17.37 10.9488 17.5932 10.8673 17.8208 10.797C18.0484 10.7268 18.2788 10.6677 18.512 10.6205C18.7451 10.5733 18.9799 10.5379 19.2169 10.5137C19.4533 10.4901 19.6909 10.4783 19.9284 10.4783C20.1659 10.4783 20.4035 10.4901 20.6399 10.5137C20.8764 10.5379 21.1117 10.5733 21.3448 10.6205C21.578 10.6677 21.8084 10.7268 22.036 10.797C22.2631 10.8673 22.4868 10.9488 22.7067 11.0421C22.9261 11.1349 23.141 11.2383 23.3505 11.3524C23.5605 11.4671 23.7638 11.5914 23.9617 11.7263C24.1596 11.8606 24.3502 12.0051 24.5338 12.1592C24.7179 12.3126 24.8937 12.4757 25.0618 12.6471C25.2299 12.8186 25.3892 12.9979 25.5402 13.1857C25.6912 13.3729 25.8323 13.5674 25.9646 13.7692C26.0968 13.971 26.2186 14.1785 26.3311 14.3927C26.443 14.6063 26.5444 14.8255 26.6353 15.0493C26.7262 15.2736 26.8067 15.5018 26.8756 15.7334C26.9445 15.9656 27.0024 16.2006 27.0487 16.4384C27.095 16.6762 27.1297 16.9162 27.1534 17.1574C27.1765 17.3986 27.1881 17.6409 27.1881 17.8832Z" fill="black"/>
</g>
<defs>
<clipPath id="clip0_415_92">
<rect width="40" height="40.8" fill="white"/>
</clipPath>
</defs>
</svg>
