<svg width="199" height="111" viewBox="0 0 199 111" fill="none" xmlns="http://www.w3.org/2000/svg">
<g id="PELITA HARAPAN HOSPITAL 1">
<g id="Clip path group">
<mask id="mask0_98_332" style="mask-type:luminance" maskUnits="userSpaceOnUse" x="23" y="25" width="73" height="61">
<g id="4eef1005aa">
<path id="Vector" d="M23.123 25.3872H95.1156V85.0395H23.123V25.3872Z" fill="white"/>
</g>
</mask>
<g mask="url(#mask0_98_332)">
<g id="Group">
<path id="Vector_2" d="M72.3595 44.2374V25.5315H45.8701V44.2374H23.2974V66.189H45.8701V84.8874H72.3595V66.189H94.9322V44.2374H72.3595ZM88.9336 56.1253H69.5619L62.9488 65.3377L55.235 49.1325L51.9513 56.1633H29.296C28.8099 56.1633 28.4063 55.8289 28.4063 55.4261C28.4063 55.0156 28.8099 54.6888 29.296 54.6888H50.7406L55.2258 45.0812L63.279 62.0085L68.5438 54.6508H88.9336C89.4197 54.6508 89.8233 54.9852 89.8233 55.388C89.8233 55.7985 89.4197 56.1253 88.9336 56.1253Z" fill="#ED1C24"/>
<path id="Vector_3" d="M72.5429 85.0398H45.6867V66.3414H23.123V44.0858H45.6867V25.3799H72.5429V44.0858H95.1065V66.3414H72.5429V85.0398ZM46.0535 84.7434H72.176V66.0374H94.7487V44.3823H72.176V25.6839H46.0535V44.3899H23.4808V66.0374H46.0535V84.7434ZM62.9212 65.6802L55.2441 49.5433L52.0797 56.3082H29.2959C28.7089 56.3082 28.232 55.9129 28.232 55.4265C28.232 54.9324 28.7089 54.5372 29.2959 54.5372H50.6121L55.2257 44.6711L63.3064 61.6668L68.4429 54.5067H88.9336C89.5206 54.5067 89.9975 54.902 89.9975 55.3885C89.9975 55.8825 89.5206 56.2778 88.9336 56.2778H69.6628L62.9212 65.6802ZM55.2349 48.7148L62.9854 65.0037L69.4518 55.9737H88.9336C89.3188 55.9737 89.6398 55.7153 89.6398 55.3885C89.6398 55.0692 89.3188 54.8032 88.9336 54.8032H68.6538L63.2422 62.3433L55.2257 45.492L50.8598 54.8412H29.2959C28.9107 54.8412 28.5897 55.0996 28.5897 55.4265C28.5897 55.7457 28.9107 56.0117 29.2959 56.0117H51.832L55.2349 48.7148Z" fill="#8C0617"/>
</g>
</g>
</g>
<g id="Group_2">
<g id="Group_3">
<g id="Group_4">
<path id="Vector_4" d="M101.417 44.0334H101.16L100.757 43.9117L100.573 43.6989L100.61 41.5403L100.573 41.3274V38.0742L100.61 37.6182V36.1892L100.72 36.0068L101.014 35.8851L101.307 35.8547L101.564 35.8851H101.894L102.738 35.8547L103.031 35.8851H103.875L104.205 35.8547H105.086L105.343 35.9459H105.636L105.856 36.0068L106.443 36.1588L106.884 36.402L107.544 36.8581L107.874 37.2533L108.131 37.6486L108.315 38.0742L108.351 38.3174L108.388 38.5303V39.4728L108.278 39.6856L108.241 39.9288L108.021 40.3849L107.728 40.7498L107.544 40.9322L107.141 41.2666L106.92 41.4186L105.6 41.8443L104.169 41.9355L103.875 41.9051H103.545L103.215 42.0571L103.105 42.2699V43.6685L102.995 43.9117L102.701 44.003L102.371 44.0334L102.114 44.003L101.417 44.0334ZM103.545 40.0505L103.875 40.0201L104.572 40.0505L105.013 39.9897L105.233 39.9288L105.49 39.8072L105.673 39.6248L105.783 39.412L105.893 39.2296V38.5911L105.856 38.3783L105.71 38.135L105.526 37.983L105.306 37.8614L105.013 37.7398L103.545 37.7094L103.252 37.831L103.105 38.0438V38.7735L103.141 39.716L103.252 39.9288L103.545 40.0505Z" fill="#1F4F6B"/>
</g>
</g>
</g>
<g id="Group_5">
<g id="Group_6">
<g id="Group_7">
<path id="Vector_5" d="M112.966 44.0335L112.71 44.0031L112.416 44.0335H112.086L111.829 43.9727L111.242 44.0031H110.985L110.692 44.0335L109.664 44.0031L109.261 43.8511L109.151 43.547L109.114 43.3038L109.151 42.4829L109.114 42.2701L109.151 42.0268V40.1418L109.114 39.929V38.9865L109.151 38.7736L109.114 38.5304L109.151 37.3751L109.114 37.1318L109.151 36.6454L109.114 36.1893L109.261 35.9461L109.554 35.8549L109.848 35.8853L110.141 35.8549L110.361 35.8853L110.655 35.8245L110.912 35.8549H112.599L112.893 35.8853L113.186 35.8549H114.324L114.581 35.8853H114.874L115.168 35.9765L115.278 36.1893L115.314 36.8886L115.278 37.1318L115.314 37.3751L115.168 37.5879L114.874 37.7095L114.617 37.7399L112.599 37.7095L112.343 37.7399H112.049L111.756 37.8311L111.646 38.0439V38.4088L111.756 38.7736L112.049 38.8648H112.856L113.443 38.8952L113.737 38.8648H114.581L114.874 39.0169L115.021 39.3513L114.984 40.385L114.874 40.6283L114.617 40.7195H113.443L112.893 40.7499L112.453 40.7195H112.012L111.756 40.8411L111.646 41.0843V41.814L111.756 42.0268L112.049 42.1485L112.343 42.1181L112.636 42.1485H112.93L113.223 42.1789L113.663 42.1181L114.397 42.1485L114.654 42.1789L114.984 42.1485L115.278 42.2701L115.424 42.4829V43.6686L115.278 43.9119L114.984 44.0031L112.966 44.0335Z" fill="#1F4F6B"/>
</g>
</g>
</g>
<g id="Group_8">
<g id="Group_9">
<g id="Group_10">
<path id="Vector_6" d="M116.497 43.5773V39.2296L116.461 38.9863V38.7431L116.497 38.3174L116.461 38.0742L116.497 37.8614V36.2196L116.607 35.9764L116.901 35.8851L117.158 35.8547L117.745 35.8851L118.002 35.8547H118.552L118.845 35.9764L118.992 36.25V36.4628L119.029 37.1317L118.992 37.5878L119.029 37.8614L118.992 41.8139L119.102 42.0571L119.396 42.1483L119.689 42.1179L120.24 42.1483L120.496 42.1179L120.79 42.1483H121.34L121.634 42.1787L121.927 42.1179H122.221L122.441 42.2395L122.588 42.6044V43.5469L122.441 43.9117L122.184 44.003H119.396L119.102 44.0334L118.809 44.003H117.745L117.158 44.0334L116.864 44.003L116.607 43.8813L116.497 43.5773Z" fill="#1F4F6B"/>
</g>
</g>
</g>
<g id="Group_11">
<g id="Group_12">
<g id="Group_13">
<path id="Vector_7" d="M126.984 44.0638L126.728 44.003H126.031L125.59 44.0334L125.04 44.003H124.746L124.343 44.0334L123.903 43.9726L123.646 44.003H123.389L123.095 43.9117L122.949 43.5773L123.022 42.5132L123.169 42.3003L124.086 42.0571L124.233 41.7227L124.196 38.135L124.086 37.831L123.793 37.679H123.536L123.206 37.5574L123.059 37.3445L123.095 37.1013L123.059 36.25L123.206 35.9764L123.462 35.8547H123.793L124.049 35.8851H125.223L125.48 35.8547H127.461L127.682 35.9764L127.865 36.2196V37.3749L127.718 37.5574L127.425 37.6486L127.131 37.679L126.838 37.7702L126.728 38.0438L126.654 39.2296L126.728 40.0809L126.691 40.3241L126.728 41.6011L126.654 41.8139L126.838 42.0875L127.168 42.1787H127.461L127.792 42.3003L127.938 42.5436V43.6989L127.828 43.9117L127.572 44.0334L126.984 44.0638Z" fill="#1F4F6B"/>
</g>
</g>
</g>
<g id="Group_14">
<g id="Group_15">
<g id="Group_16">
<path id="Vector_8" d="M131.632 44.0335L131.192 44.0031L130.788 43.9119L130.605 43.6382L130.642 43.4254V42.7565L130.605 42.5133L130.642 41.5708L130.678 41.3276L130.605 39.5945L130.642 39.2601V38.7736L130.605 38.4392L130.642 38.0743L130.495 37.8311L130.238 37.7399L128.881 37.7095L128.624 37.7399L128.367 37.6183L128.22 37.4055V36.2197L128.367 35.9461L128.66 35.8549L129.651 35.8853L130.055 35.8549L130.898 35.8853L131.155 35.8549H131.449L131.742 35.8245L132.036 35.8549L132.293 35.8853L133.43 35.8549H133.724L134.017 35.8245L134.274 35.8549H135.154L135.411 36.0069L135.558 36.2501V37.3447L135.375 37.5879L135.154 37.7399L134.898 37.7095L134.604 37.7399L134.09 37.6791L133.54 37.7095L133.247 37.8615L133.137 38.196L133.1 39.2297L133.137 39.4729V41.3276L133.173 41.6012L133.137 41.814V42.5133L133.173 42.9694L133.137 43.547L132.99 43.8815L132.586 44.0031L131.632 44.0335Z" fill="#1F4F6B"/>
</g>
</g>
</g>
<g id="Group_17">
<g id="Group_18">
<g id="Group_19">
<path id="Vector_9" d="M143.405 44.0333L143.112 44.0029L142.781 43.8812L142.488 43.6988L142.415 43.5164L142.304 43.2732L142.011 43.0907L141.717 42.9691L141.424 42.9995L141.167 42.9691L139.773 42.9995L139.516 42.9691L138.929 42.9995L138.672 42.9691L138.379 43.0907L138.122 43.3036L137.865 43.6988L137.572 43.9117L137.278 44.0029H135.664L135.37 43.9421L135.297 43.6684L135.37 43.4252L135.664 42.9691L135.737 42.7563L135.884 42.5739L136.104 42.1178L136.361 41.753L136.434 41.5097L136.581 41.3273L136.691 41.0841L138.122 38.591L138.195 38.3782L138.342 38.1653L138.415 37.9221L138.562 37.7397L139.149 36.6755L139.259 36.5235L139.369 36.2803L139.479 36.0979L139.736 35.885L140.176 35.7634L140.653 35.885L140.874 36.0979L141.167 36.4931L141.24 36.7059L141.387 36.9188L141.461 37.1316L142.415 38.7734L142.488 39.0166L142.781 39.4423L143.002 39.8071L143.112 40.0504L143.222 40.2632L143.368 40.4456L143.919 41.5097L144.176 41.9354L144.396 42.3611L144.763 42.9691L144.983 43.3948L145.093 43.6684L145.019 43.9421L144.653 44.0029H143.955L143.405 44.0333ZM140.213 41.1145H140.764L140.984 41.0233L141.057 40.8105L140.397 39.5335L140.176 39.4423L140.03 39.5335L139.369 40.8105V41.0233L139.626 41.1145L139.92 41.0841L140.213 41.1145Z" fill="#1F4F6B"/>
</g>
</g>
</g>
<g id="Group_20">
<g id="Group_21">
<g id="Group_22">
<path id="Vector_10" d="M100.573 58.2195L100.61 57.277L100.573 57.0642V53.5678L100.61 53.3549L100.573 53.0813L100.61 52.6252L100.573 52.1388V50.7402L100.72 50.5274L101.05 50.4058L102.444 50.4362L102.738 50.4058L103.031 50.5274L103.141 50.7402L103.178 51.1963L103.141 51.4395V52.8077L103.178 53.0509L103.325 53.2941L103.582 53.3853H104.939L105.49 53.3549L105.783 53.3853L106.04 53.2637L106.223 53.0205V52.1084L106.187 51.8955L106.223 51.4091L106.187 51.2267V50.7706L106.333 50.497L106.737 50.4058L108.351 50.4362L108.645 50.5274L108.755 50.7706V56.6081L108.792 56.7906L108.755 57.1554L108.792 58.2195L108.608 58.4324L108.351 58.5844L107.764 58.554H106.737L106.333 58.402L106.187 58.2195V55.6656L106.04 55.4224L105.783 55.3008H105.526L105.233 55.2704H103.582L103.252 55.4224L103.141 55.6656V57.7331L103.178 58.0067L103.141 58.2195L103.031 58.4324L102.738 58.5844L102.151 58.554L101.857 58.5844L101.27 58.554L101.014 58.5844L100.757 58.4628L100.573 58.2195Z" fill="#1F4F6B"/>
</g>
</g>
</g>
<g id="Group_23">
<g id="Group_24">
<g id="Group_25">
<path id="Vector_11" d="M117.418 58.5843L117.124 58.5539L116.794 58.4323L116.501 58.2499L116.427 58.0674L116.317 57.8242L116.024 57.6418L115.73 57.5202L115.437 57.5506L115.18 57.5202L113.786 57.5506L113.529 57.5202L112.942 57.5506L112.685 57.5202L112.391 57.6418L112.135 57.8546L111.878 58.2499L111.584 58.4627L111.291 58.5539H109.676L109.383 58.4931L109.31 58.2194L109.383 57.9762L109.676 57.5202L109.75 57.3073L109.897 57.1249L110.117 56.6689L110.374 56.304L110.447 56.0608L110.594 55.8784L110.704 55.6351L112.135 53.142L112.208 52.9292L112.355 52.7164L112.428 52.4731L112.575 52.2907L113.162 51.2266L113.272 51.0745L113.382 50.8313L113.492 50.6489L113.749 50.4361L114.189 50.3145L114.666 50.4361L114.886 50.6489L115.18 51.0441L115.253 51.257L115.4 51.4698L115.473 51.6826L116.427 53.3244L116.501 53.5677L116.794 53.9933L117.014 54.3582L117.124 54.6014L117.234 54.8142L117.381 54.9966L117.931 56.0608L118.188 56.4864L118.408 56.9121L118.775 57.5202L118.995 57.9458L119.105 58.2194L119.032 58.4931L118.665 58.5539H117.968L117.418 58.5843ZM114.226 55.6655H114.776L114.996 55.5743L115.07 55.3615L114.409 54.0845L114.189 53.9933L114.042 54.0845L113.382 55.3615V55.5743L113.639 55.6655L113.932 55.6351L114.226 55.6655Z" fill="#1F4F6B"/>
</g>
</g>
</g>
<g id="Group_26">
<g id="Group_27">
<g id="Group_28">
<path id="Vector_12" d="M119.686 58.0674V56.3648L119.649 56.1216V55.179L119.686 54.9662L119.649 54.723V54.2365L119.686 53.7805L119.649 53.5372V50.8921L119.833 50.5577L120.053 50.4361L120.897 50.3752L121.484 50.4361H121.777L122.034 50.3752H122.291L122.585 50.4361H123.428L123.832 50.4056H124.272L125.079 50.5577L125.63 50.7097L126.107 50.9529L126.914 51.6522L127.061 51.8346L127.171 52.0171L127.427 52.6859L127.464 52.9292L127.501 53.6589L127.317 54.3277L126.767 55.1486L126.584 55.2703L126.363 55.4527L126.253 55.7263V56L126.437 56.152L126.877 56.76L127.024 56.9729L127.501 57.5809L127.611 57.7938L127.758 57.9458L127.941 58.2194L127.831 58.4627L127.574 58.5843H127.097L126.84 58.5539L125.74 58.5843L125.263 58.4627L124.933 58.2498L124.786 58.0674L124.676 57.8242L124.529 57.6722L124.272 57.2465L123.979 56.8817L123.685 56.456L123.392 56.2432L122.585 56.152L122.328 56.2736L122.181 56.5168V57.2465L122.218 57.5201L122.181 57.7026V58.0978L122.034 58.4627L121.594 58.5539H121.19L120.97 58.5843L120.493 58.5539L120.236 58.5843L119.833 58.4323L119.686 58.0674ZM122.585 54.2973L122.878 54.2669L123.575 54.2973L123.832 54.2669L124.236 54.2061L124.492 54.1149L124.823 53.8413L124.933 53.598L124.969 53.2332L124.933 52.9292L124.823 52.7467L124.492 52.3819L124.199 52.3211H123.832L123.465 52.2299L122.878 52.2907H122.621L122.328 52.3819L122.181 52.5947V53.9629L122.291 54.1757L122.585 54.2973Z" fill="#1F4F6B"/>
</g>
</g>
</g>
<g id="Group_29">
<g id="Group_30">
<g id="Group_31">
<path id="Vector_13" d="M135.96 58.5843L135.667 58.5539L135.337 58.4323L135.043 58.2499L134.97 58.0674L134.86 57.8242L134.566 57.6418L134.273 57.5202L133.979 57.5506L133.722 57.5202L132.328 57.5506L132.071 57.5202L131.484 57.5506L131.227 57.5202L130.934 57.6418L130.677 57.8546L130.42 58.2499L130.127 58.4627L129.833 58.5539H128.219L127.925 58.4931L127.852 58.2194L127.925 57.9762L128.219 57.5202L128.292 57.3073L128.439 57.1249L128.659 56.6689L128.916 56.304L128.989 56.0608L129.136 55.8784L129.246 55.6351L130.677 53.142L130.75 52.9292L130.897 52.7164L130.971 52.4731L131.117 52.2907L131.704 51.2266L131.814 51.0745L131.925 50.8313L132.035 50.6489L132.291 50.4361L132.732 50.3145L133.209 50.4361L133.429 50.6489L133.722 51.0441L133.796 51.257L133.942 51.4698L134.016 51.6826L134.97 53.3244L135.043 53.5677L135.337 53.9933L135.557 54.3582L135.667 54.6014L135.777 54.8142L135.924 54.9966L136.474 56.0608L136.731 56.4864L136.951 56.9121L137.318 57.5202L137.538 57.9458L137.648 58.2194L137.575 58.4931L137.208 58.5539H136.511L135.96 58.5843ZM132.768 55.6655H133.319L133.539 55.5743L133.612 55.3615L132.952 54.0845L132.732 53.9933L132.585 54.0845L131.925 55.3615V55.5743L132.181 55.6655L132.475 55.6351L132.768 55.6655Z" fill="#1F4F6B"/>
</g>
</g>
</g>
<g id="Group_32">
<g id="Group_33">
<g id="Group_34">
<path id="Vector_14" d="M139.035 58.5844H138.779L138.375 58.4628L138.192 58.2499L138.228 56.0913L138.192 55.8784V52.6252L138.228 52.1692V50.7402L138.338 50.5578L138.632 50.4362L138.925 50.4058L139.182 50.4362H139.512L140.356 50.4058L140.65 50.4362H141.494L141.824 50.4058H142.704L142.961 50.497H143.255L143.475 50.5578L144.062 50.7098L144.502 50.953L145.163 51.4091L145.493 51.8043L145.75 52.1996L145.933 52.6252L145.97 52.8685L146.006 53.0813V54.0238L145.896 54.2366L145.86 54.4799L145.639 54.9359L145.346 55.3008L145.163 55.4832L144.759 55.8176L144.539 55.9697L143.218 56.3953L141.787 56.4865L141.494 56.4561H141.163L140.833 56.6081L140.723 56.821V58.2195L140.613 58.4628L140.32 58.554L139.989 58.5844L139.733 58.554L139.035 58.5844ZM141.163 54.6015L141.494 54.5711L142.191 54.6015L142.631 54.5407L142.851 54.4799L143.108 54.3583L143.291 54.1758L143.401 53.963L143.512 53.7806V53.1421L143.475 52.9293L143.328 52.686L143.145 52.534L142.925 52.4124L142.631 52.2908L141.163 52.2604L140.87 52.382L140.723 52.5948V53.3245L140.76 54.267L140.87 54.4799L141.163 54.6015Z" fill="#1F4F6B"/>
</g>
</g>
</g>
<g id="Group_35">
<g id="Group_36">
<g id="Group_37">
<path id="Vector_15" d="M153.997 58.5843L153.703 58.5539L153.373 58.4323L153.079 58.2499L153.006 58.0674L152.896 57.8242L152.602 57.6418L152.309 57.5202L152.015 57.5506L151.759 57.5202L150.364 57.5506L150.108 57.5202L149.521 57.5506L149.264 57.5202L148.97 57.6418L148.713 57.8546L148.457 58.2499L148.163 58.4627L147.87 58.5539H146.255L145.962 58.4931L145.888 58.2194L145.962 57.9762L146.255 57.5202L146.329 57.3073L146.475 57.1249L146.696 56.6689L146.952 56.304L147.026 56.0608L147.173 55.8784L147.283 55.6351L148.713 53.142L148.787 52.9292L148.934 52.7164L149.007 52.4731L149.154 52.2907L149.741 51.2266L149.851 51.0745L149.961 50.8313L150.071 50.6489L150.328 50.4361L150.768 50.3145L151.245 50.4361L151.465 50.6489L151.759 51.0441L151.832 51.257L151.979 51.4698L152.052 51.6826L153.006 53.3244L153.079 53.5677L153.373 53.9933L153.593 54.3582L153.703 54.6014L153.813 54.8142L153.96 54.9966L154.51 56.0608L154.767 56.4864L154.987 56.9121L155.354 57.5202L155.574 57.9458L155.684 58.2194L155.611 58.4931L155.244 58.5539H154.547L153.997 58.5843ZM150.805 55.6655H151.355L151.575 55.5743L151.649 55.3615L150.988 54.0845L150.768 53.9933L150.621 54.0845L149.961 55.3615V55.5743L150.218 55.6655L150.511 55.6351L150.805 55.6655Z" fill="#1F4F6B"/>
</g>
</g>
</g>
<g id="Group_38">
<g id="Group_39">
<g id="Group_40">
<path id="Vector_16" d="M163.493 58.3412L163.273 58.2195L162.906 57.8547L160.741 56.0609L160.484 55.9393L160.301 55.7568L159.31 54.9663L159.127 54.7839L158.943 54.7231L158.87 54.9359L158.833 55.1488L158.796 58.0979L158.686 58.4628L158.393 58.5844H158.099L157.549 58.554L157.256 58.5844L156.669 58.554L156.375 58.4628L156.228 58.2499V55.1488L156.265 54.9359L156.228 54.4799V50.7402L156.375 50.5274L156.705 50.4058L157.109 50.497L157.439 50.6186L157.659 50.7706L160.411 53.0813L160.814 53.3245L161.805 54.1758L162.025 54.2366L162.098 54.0542L162.135 51.9564L162.098 51.7131L162.135 51.2267L162.098 51.0442V50.801L162.282 50.5274L162.539 50.4058H164.263L164.557 50.5274L164.703 50.7706L164.74 52.382L164.703 52.6556V53.811L164.74 54.0238L164.703 58.2499L164.557 58.4932L164.263 58.5844L163.86 58.554L163.493 58.3412Z" fill="#1F4F6B"/>
</g>
</g>
</g>
<g id="Group_41">
<g id="Group_42">
<g id="Group_43">
<path id="Vector_17" d="M100.573 72.7703L100.61 71.8278L100.573 71.615V68.1185L100.61 67.9057L100.573 67.6321L100.61 67.176L100.573 66.6896V65.291L100.72 65.0782L101.05 64.9565L102.444 64.9869L102.738 64.9565L103.031 65.0782L103.141 65.291L103.178 65.747L103.141 65.9903V67.3584L103.178 67.6017L103.325 67.8449L103.582 67.9361H104.939L105.49 67.9057L105.783 67.9361L106.04 67.8145L106.223 67.5713V66.6592L106.187 66.4463L106.223 65.9599L106.187 65.7774V65.3214L106.333 65.0478L106.737 64.9565L108.351 64.9869L108.645 65.0782L108.755 65.3214V71.1589L108.792 71.3413L108.755 71.7062L108.792 72.7703L108.608 72.9832L108.351 73.1352L107.764 73.1048H106.737L106.333 72.9527L106.187 72.7703V70.2164L106.04 69.9732L105.783 69.8516H105.526L105.233 69.8212H103.582L103.252 69.9732L103.141 70.2164V72.2839L103.178 72.5575L103.141 72.7703L103.031 72.9832L102.738 73.1352L102.151 73.1048L101.857 73.1352L101.27 73.1048L101.014 73.1352L100.757 73.0136L100.573 72.7703Z" fill="#1F4F6B"/>
</g>
</g>
</g>
<g id="Group_44">
<g id="Group_45">
<g id="Group_46">
<path id="Vector_18" d="M114.776 73.2568L113.932 73.2264L112.722 72.9224L112.465 72.8312L111.511 72.4055L110.924 71.9191L110.264 71.1894L110.117 70.9765L110.043 70.7333L109.823 70.3381L109.677 69.6084L109.713 68.2402L109.86 67.7537L110.117 67.1152L110.227 66.9024L110.704 66.3247L111.107 65.9903L111.548 65.7167L111.731 65.5951L112.465 65.1998L112.979 65.0782L113.235 64.987L113.529 64.9262L113.822 64.8958L114.776 64.835H115.437L117.308 65.3214L118.005 65.6863L118.629 66.1423L118.812 66.3552L118.959 66.5072L119.142 66.6896L119.252 66.9024L119.509 67.2977L119.582 67.5713L119.693 67.8145L119.803 68.2402L119.876 69.0307L119.803 69.8516L119.729 70.1252L119.656 70.3076L119.619 70.5205L119.509 70.7637L118.959 71.5542L118.775 71.767L117.785 72.5575L116.537 73.0136L116.024 73.1656L114.776 73.2568ZM114.373 71.2198L115.18 71.1894L115.437 71.1286L115.693 71.0981L115.914 71.0069L116.17 70.9157L116.611 70.6117L116.794 70.4293L116.904 70.2468L117.051 70.0644L117.198 69.578L117.271 69.0003L117.234 68.5138L117.124 68.301L117.051 68.0578L116.941 67.8449L116.611 67.4497L116.17 67.1761L115.437 66.9328L114.74 66.872L114.116 66.9328L113.822 66.9936L113.566 67.0848L113.162 67.3281L112.942 67.4801L112.758 67.6625L112.612 67.8753L112.465 68.0274L112.355 68.2402L112.281 68.6658L112.245 69.0307L112.318 69.6084L112.612 70.2468L112.795 70.4293L112.905 70.5813L113.345 70.8853L113.822 71.0981L114.079 71.1286L114.373 71.2198Z" fill="#1F4F6B"/>
</g>
</g>
</g>
<g id="Group_47">
<g id="Group_48">
<g id="Group_49">
<path id="Vector_19" d="M123.469 73.196L122.882 73.1352L122.331 72.9528L122.075 72.892L121.781 72.8008L121.598 72.6183L121.121 72.3447L120.937 72.1927L120.717 72.0407L120.46 71.615L120.387 71.4022L120.314 71.159L120.277 70.9157L120.387 70.6725L120.644 70.5813L121.744 70.5509L122.001 70.5813L122.258 70.5509L122.515 70.6421L122.992 71.0677L123.249 71.1894L123.469 71.311L124.203 71.3718L124.423 71.311H124.863L125.34 71.1286L125.523 70.9461L125.633 70.6725L125.56 70.3685L125.377 70.2164L124.863 70.034L122.662 69.8212L122.148 69.6692L121.194 69.2435L120.68 68.7266L120.46 68.301L120.35 67.8449V67.4801L120.387 66.9024L120.644 66.2639L121.121 65.7167L121.818 65.3518L122.295 65.1086L122.808 64.9566L123.065 64.9262H123.359L123.652 64.835L124.753 64.8654L125.303 64.9566L126.074 65.1998L127.028 65.7167L127.321 66.0815L127.725 66.6896V66.9024L127.798 67.1152L127.688 67.3281L127.431 67.4801L127.174 67.4497H126.881L126.514 67.4193L125.854 67.4801L125.523 67.3281L125.34 67.0848L124.826 66.7808L124.569 66.7504L124.129 66.6896H123.689L123.432 66.7504L123.212 66.8416L122.992 66.9936L122.808 67.1457L122.735 67.4497L122.808 67.7841L123.029 67.9666L123.542 68.1794L124.276 68.301H124.68L125.56 68.3922L126.661 68.6658L126.881 68.7875L127.138 68.8787L127.358 69.0611L127.908 69.6084L128.092 70.2772L128.128 70.6725L128.055 71.2502L127.982 71.4326L127.871 71.6454L127.725 71.9191L127.578 72.0711L127.174 72.4055L126.22 72.892L125.964 73.0136H125.707L125.413 73.1048L125.156 73.1656L124.569 73.2264L123.469 73.196Z" fill="#1F4F6B"/>
</g>
</g>
</g>
<g id="Group_50">
<g id="Group_51">
<g id="Group_52">
<path id="Vector_20" d="M129.821 73.1352H129.564L129.16 73.0136L128.977 72.8007L129.013 70.6421L128.977 70.4292V67.176L129.013 66.72V65.291L129.124 65.1086L129.417 64.9869L129.711 64.9565L129.967 64.9869H130.298L131.141 64.9565L131.435 64.9869H132.279L132.609 64.9565H133.49L133.746 65.0478H134.04L134.26 65.1086L134.847 65.2606L135.287 65.5038L135.948 65.9599L136.278 66.3551L136.535 66.7504L136.718 67.176L136.755 67.4193L136.792 67.6321V68.5746L136.681 68.7874L136.645 69.0307L136.425 69.4867L136.131 69.8516L135.948 70.034L135.544 70.3684L135.324 70.5204L134.003 70.9461L132.572 71.0373L132.279 71.0069H131.949L131.618 71.1589L131.508 71.3717V72.7703L131.398 73.0136L131.105 73.1048L130.775 73.1352L130.518 73.1048L129.821 73.1352ZM131.949 69.1523L132.279 69.1219L132.976 69.1523L133.416 69.0915L133.636 69.0307L133.893 68.909L134.077 68.7266L134.187 68.5138L134.297 68.3314V67.6929L134.26 67.4801L134.113 67.2368L133.93 67.0848L133.71 66.9632L133.416 66.8416L131.949 66.8112L131.655 66.9328L131.508 67.1456V67.8753L131.545 68.8178L131.655 69.0307L131.949 69.1523Z" fill="#1F4F6B"/>
</g>
</g>
</g>
<g id="Group_53">
<g id="Group_54">
<g id="Group_55">
<path id="Vector_21" d="M141.186 73.1656L140.929 73.1048H140.232L139.792 73.1352L139.242 73.1048H138.948L138.545 73.1352L138.104 73.0744L137.847 73.1048H137.591L137.297 73.0136L137.15 72.6791L137.224 71.615L137.371 71.4022L138.288 71.1589L138.434 70.8245L138.398 67.2368L138.288 66.9328L137.994 66.7808H137.737L137.407 66.6592L137.26 66.4463L137.297 66.2031L137.26 65.3518L137.407 65.0782L137.664 64.9565H137.994L138.251 64.9869H139.425L139.682 64.9565H141.663L141.883 65.0782L142.067 65.3214V66.4767L141.92 66.6592L141.626 66.7504L141.333 66.7808L141.039 66.872L140.929 67.1456L140.856 68.3314L140.929 69.1827L140.893 69.4259L140.929 70.7029L140.856 70.9157L141.039 71.1893L141.37 71.2805H141.663L141.993 71.4022L142.14 71.6454V72.8007L142.03 73.0136L141.773 73.1352L141.186 73.1656Z" fill="#1F4F6B"/>
</g>
</g>
</g>
<g id="Group_56">
<g id="Group_57">
<g id="Group_58">
<path id="Vector_22" d="M145.834 73.1353L145.394 73.1049L144.99 73.0137L144.807 72.7401L144.843 72.5272V71.8583L144.807 71.6151L144.843 70.6726L144.88 70.4294L144.807 68.6963L144.843 68.3619V67.8754L144.807 67.541L144.843 67.1762L144.697 66.9329L144.44 66.8417L143.082 66.8113L142.825 66.8417L142.569 66.7201L142.422 66.5073V65.3215L142.569 65.0479L142.862 64.9567L143.853 64.9871L144.256 64.9567L145.1 64.9871L145.357 64.9567H145.65L145.944 64.9263L146.238 64.9567L146.494 64.9871L147.632 64.9567H147.925L148.219 64.9263L148.476 64.9567H149.356L149.613 65.1087L149.76 65.3519V66.4465L149.576 66.6897L149.356 66.8417L149.099 66.8113L148.806 66.8417L148.292 66.7809L147.742 66.8113L147.448 66.9633L147.338 67.2978L147.301 68.3315L147.338 68.5747V70.4294L147.375 70.703L147.338 70.9158V71.6151L147.375 72.0712L147.338 72.6488L147.191 72.9833L146.788 73.1049L145.834 73.1353Z" fill="#1F4F6B"/>
</g>
</g>
</g>
<g id="Group_59">
<g id="Group_60">
<g id="Group_61">
<path id="Vector_23" d="M157.607 73.1351L157.313 73.1047L156.983 72.9831L156.69 72.8006L156.616 72.6182L156.506 72.375L156.213 72.1926L155.919 72.0709L155.626 72.1013L155.369 72.0709L153.975 72.1013L153.718 72.0709L153.131 72.1013L152.874 72.0709L152.58 72.1926L152.324 72.4054L152.067 72.8006L151.773 73.0135L151.48 73.1047H149.865L149.572 73.0439L149.499 72.7702L149.572 72.527L149.865 72.0709L149.939 71.8581L150.086 71.6757L150.306 71.2196L150.563 70.8548L150.636 70.6116L150.783 70.4291L150.893 70.1859L152.324 67.6928L152.397 67.48L152.544 67.2671L152.617 67.0239L152.764 66.8415L153.351 65.7773L153.461 65.6253L153.571 65.3821L153.681 65.1997L153.938 64.9868L154.378 64.8652L154.855 64.9868L155.075 65.1997L155.369 65.5949L155.442 65.8078L155.589 66.0206L155.662 66.2334L156.616 67.8752L156.69 68.1184L156.983 68.5441L157.203 68.9089L157.313 69.1522L157.423 69.365L157.57 69.5474L158.12 70.6116L158.377 71.0372L158.597 71.4629L158.964 72.0709L159.184 72.4966L159.294 72.7702L159.221 73.0439L158.854 73.1047H158.157L157.607 73.1351ZM154.415 70.2163H154.965L155.185 70.1251L155.259 69.9123L154.598 68.6353L154.378 68.5441L154.231 68.6353L153.571 69.9123V70.1251L153.828 70.2163L154.121 70.1859L154.415 70.2163Z" fill="#1F4F6B"/>
</g>
</g>
</g>
<g id="Group_62">
<g id="Group_63">
<g id="Group_64">
<path id="Vector_24" d="M159.875 72.6791V68.3314L159.838 68.0881V67.8449L159.875 67.4193L159.838 67.176L159.875 66.9632V65.3214L159.985 65.0782L160.279 64.9869L160.535 64.9565L161.122 64.9869L161.379 64.9565H161.93L162.223 65.0782L162.37 65.3518V65.5646L162.407 66.2335L162.37 66.6896L162.407 66.9632L162.37 70.9157L162.48 71.1589L162.773 71.2501L163.067 71.2197L163.617 71.2501L163.874 71.2197L164.168 71.2501H164.718L165.011 71.2805L165.305 71.2197H165.599L165.819 71.3413L165.965 71.7062V72.6487L165.819 73.0136L165.562 73.1048H162.773L162.48 73.1352L162.186 73.1048H161.122L160.535 73.1352L160.242 73.1048L159.985 72.9832L159.875 72.6791Z" fill="#1F4F6B"/>
</g>
</g>
</g>
</g>
</svg>
