<svg width="36" height="23" viewBox="0 0 36 23" fill="none" xmlns="http://www.w3.org/2000/svg">
<g id="9 1">
<g id="Clip path group">
<mask id="mask0_191_334" style="mask-type:luminance" maskUnits="userSpaceOnUse" x="6" y="0" width="24" height="23">
<g id="cad3e6ef45">
<path id="Vector" d="M6.0332 0.0332031H29.8557V22.9654H6.0332V0.0332031Z" fill="white"/>
</g>
</mask>
<g mask="url(#mask0_191_334)">
<g id="Group">
<path id="Vector_2" d="M17.937 0.0552468C11.3214 0.0757373 6.03488 5.24096 6.12116 11.5915C6.13609 12.8793 6.37503 14.1292 6.83299 15.3381C7.29262 16.5487 7.94804 17.652 8.7976 18.6482C8.93532 18.8074 9.01165 18.9902 9.03156 19.1967C9.04981 19.4032 9.00667 19.597 8.90047 19.7767L7.88001 21.5342C7.59627 22.0213 8.05755 22.5981 8.62171 22.461L12.0797 21.6146C12.3302 21.5547 12.5692 21.5783 12.8015 21.6855C14.3496 22.4074 15.984 22.7873 17.703 22.822C24.3551 22.967 29.8125 17.8632 29.8341 11.4764C29.854 5.159 24.5161 0.0331798 17.937 0.0552468ZM17.9768 21.4223C17.6366 21.4223 17.2965 21.4065 16.958 21.3734C16.6195 21.3419 16.2827 21.2946 15.9491 21.23C15.6156 21.167 15.2854 21.0866 14.9585 20.992C14.6333 20.8974 14.3131 20.7871 13.9995 20.6626C13.6842 20.5365 13.3772 20.3978 13.0769 20.2433C12.7766 20.0888 12.4845 19.9217 12.2008 19.7405C11.9187 19.5576 11.6449 19.3638 11.3828 19.1557C11.1189 18.9492 10.8667 18.7301 10.6261 18.4984C10.3855 18.2667 10.1566 18.0256 9.94085 17.7718C9.72514 17.5196 9.52271 17.258 9.33355 16.9853C9.14439 16.7142 8.9685 16.4336 8.80921 16.1452C8.64826 15.8567 8.50224 15.562 8.37282 15.2593C8.24173 14.9583 8.12724 14.6509 8.02934 14.3372C7.92979 14.0252 7.84682 13.7083 7.78045 13.3868C7.71408 13.0668 7.6643 12.7437 7.63111 12.419C7.59793 12.0927 7.58134 11.7665 7.58134 11.4402C7.58134 5.92661 12.2357 1.45807 17.9768 1.45807C23.6964 1.45807 28.3374 5.89194 28.3723 11.3756C28.4088 16.8781 23.708 21.4223 17.9768 21.4223Z" fill="#1BA553"/>
</g>
</g>
</g>
<path id="Vector_3" d="M28.3722 11.4401C28.3722 11.7664 28.3556 12.0927 28.3225 12.4189C28.2893 12.7436 28.2395 13.0668 28.1731 13.3867C28.1067 13.7083 28.0238 14.0251 27.9259 14.3372C27.8263 14.6509 27.7118 14.9582 27.5824 15.2593C27.4513 15.5619 27.3053 15.8567 27.146 16.1451C26.9851 16.4335 26.8108 16.7141 26.6217 16.9852C26.4325 17.2579 26.2284 17.5195 26.0127 17.7717C25.797 18.0255 25.568 18.2667 25.3274 18.4984C25.0868 18.7301 24.8346 18.9492 24.5725 19.1556C24.3086 19.3637 24.0365 19.5576 23.7528 19.7404C23.469 19.9217 23.1786 20.0888 22.8783 20.2432C22.578 20.3977 22.2694 20.5364 21.9557 20.6625C21.6405 20.787 21.3202 20.8974 20.995 20.9919C20.6698 21.0865 20.3396 21.1669 20.0044 21.2299C19.6709 21.2946 19.3341 21.3418 18.9956 21.3734C18.6571 21.4065 18.3169 21.4222 17.9768 21.4222C17.6366 21.4222 17.2965 21.4065 16.958 21.3734C16.6195 21.3418 16.2826 21.2946 15.9491 21.2299C15.6156 21.1669 15.2854 21.0865 14.9585 20.9919C14.6333 20.8974 14.313 20.787 13.9994 20.6625C13.6842 20.5364 13.3772 20.3977 13.0769 20.2432C12.7765 20.0888 12.4845 19.9217 12.2008 19.7404C11.9187 19.5576 11.6449 19.3637 11.3811 19.1556C11.1189 18.9492 10.8667 18.7301 10.6261 18.4984C10.3855 18.2667 10.1565 18.0255 9.94081 17.7717C9.7251 17.5195 9.52267 17.2579 9.33351 16.9852C9.14435 16.7141 8.96847 16.4335 8.80918 16.1451C8.64822 15.8567 8.50221 15.5619 8.37278 15.2593C8.2417 14.9582 8.12721 14.6509 8.02931 14.3372C7.92975 14.0251 7.84679 13.7083 7.78041 13.3867C7.71404 13.0668 7.66426 12.7436 7.63108 12.4189C7.59789 12.0927 7.5813 11.7664 7.5813 11.4401C7.5813 11.1123 7.59789 10.786 7.63108 10.4613C7.66426 10.1366 7.71404 9.81348 7.78041 9.49193C7.84679 9.17196 7.92975 8.85514 8.02931 8.54148C8.12721 8.22939 8.2417 7.92203 8.37278 7.6194C8.50221 7.31834 8.64822 7.02202 8.80918 6.73357C8.96847 6.44512 9.14435 6.16614 9.33351 5.89345C9.52267 5.62234 9.7251 5.35912 9.94081 5.10692C10.1565 4.85473 10.3855 4.612 10.6261 4.38187C10.8667 4.15017 11.1189 3.93108 11.3811 3.72302C11.6449 3.51653 11.9187 3.32108 12.2008 3.13982C12.4845 2.95856 12.7765 2.7899 13.0769 2.63701C13.3772 2.48254 13.6842 2.34226 13.9994 2.21774C14.313 2.09164 14.6333 1.98288 14.9585 1.88674C15.2854 1.79216 15.6156 1.71335 15.9491 1.64873C16.2826 1.58568 16.6195 1.53839 16.958 1.50529C17.2965 1.47377 17.6366 1.45801 17.9768 1.45801C18.3169 1.45801 18.6571 1.47377 18.9956 1.50529C19.3341 1.53839 19.6709 1.58568 20.0044 1.64873C20.3396 1.71335 20.6698 1.79216 20.995 1.88674C21.3202 1.98288 21.6405 2.09164 21.9557 2.21774C22.2694 2.34226 22.578 2.48254 22.8783 2.63701C23.1786 2.7899 23.469 2.95856 23.7528 3.13982C24.0365 3.32108 24.3086 3.51653 24.5725 3.72302C24.8346 3.93108 25.0868 4.15017 25.3274 4.38187C25.568 4.612 25.797 4.85473 26.0127 5.10692C26.2284 5.35912 26.4325 5.62234 26.6217 5.89345C26.8108 6.16614 26.9851 6.44512 27.146 6.73357C27.3053 7.02202 27.4513 7.31834 27.5824 7.6194C27.7118 7.92203 27.8263 8.22939 27.9259 8.54148C28.0238 8.85514 28.1067 9.17196 28.1731 9.49193C28.2395 9.81348 28.2893 10.1366 28.3225 10.4613C28.3556 10.786 28.3722 11.1123 28.3722 11.4401Z" fill="white"/>
<path id="Vector_4" d="M16.1183 6.58704L16.1233 6.5965L16.7439 7.77708C16.8102 7.90475 16.855 8.03873 16.8766 8.18058C16.8982 8.32244 16.8965 8.4643 16.87 8.60458C16.8434 8.74644 16.7953 8.87884 16.724 9.00494C16.6526 9.13104 16.5613 9.24295 16.4518 9.3391C16.344 9.43682 16.2544 9.54715 16.183 9.67167C16.1117 9.7962 16.0619 9.9286 16.0353 10.0689C16.0088 10.2092 16.0055 10.3494 16.027 10.4913C16.047 10.6316 16.0901 10.7656 16.1565 10.8932C16.5282 11.6104 17.1736 12.6003 18.1576 13.3143C18.3832 13.4782 18.6371 13.5681 18.9209 13.5822C19.2029 13.5964 19.4668 13.5334 19.709 13.3915L20.1072 13.1582C20.2898 13.0526 20.4856 12.9896 20.6963 12.9723C20.9087 12.9533 21.1144 12.9801 21.3119 13.0526L22.8998 13.6311C23.0707 13.6942 23.2217 13.7856 23.3545 13.9054C23.4872 14.0252 23.5918 14.1654 23.6664 14.3262C23.7411 14.4854 23.7809 14.6541 23.7859 14.829C23.7925 15.004 23.7627 15.1726 23.698 15.3366C23.678 15.3838 23.6581 15.4296 23.6332 15.4737L23.1935 16.2917C23.1222 16.4257 23.0293 16.5439 22.9164 16.6464C22.8019 16.7504 22.6742 16.8324 22.5315 16.8939C22.3888 16.9537 22.2394 16.9916 22.0835 17.0042C21.9275 17.0152 21.7748 17.0026 21.6238 16.9648C19.1299 16.3469 13.1897 14.1938 12.7101 7.68408C12.6919 7.42085 12.7483 7.17339 12.8844 6.94169C13.0188 6.71156 13.2096 6.53502 13.4551 6.41523L14.2649 6.01488C14.4275 5.93449 14.5984 5.8872 14.7809 5.87302C14.9634 5.85883 15.141 5.87932 15.3152 5.93291C15.4894 5.98651 15.6454 6.07004 15.7848 6.18353C15.9242 6.29544 16.0353 6.431 16.1183 6.58704Z" fill="#1BA553"/>
</g>
</svg>
